<?xml version="1.0" encoding="utf-8"?>
<!-- Generator: Adobe Illustrator 17.1.0, SVG Export Plug-In . SVG Version: 6.00 Build 0)  -->
<!DOCTYPE svg PUBLIC "-//W3C//DTD SVG 1.1//EN" "http://www.w3.org/Graphics/SVG/1.1/DTD/svg11.dtd">
<svg version="1.1" id="圖層_1" xmlns="http://www.w3.org/2000/svg" xmlns:xlink="http://www.w3.org/1999/xlink" x="0px" y="0px"
	 viewBox="0 0 243.4 73.5" enable-background="new 0 0 243.4 73.5" xml:space="preserve">
<g>
	<g>
		<path fill="#97968E" d="M96.9,68.4h-6.5v-2.9c-1,1.2-1.9,2.1-2.9,2.6c-1,0.5-2.2,0.8-3.6,0.8c-1.9,0-3.4-0.6-4.5-1.7
			c-1.1-1.1-1.6-2.9-1.6-5.3V50.2h7v10c0,1.1,0.2,2,0.6,2.4c0.4,0.5,1,0.7,1.8,0.7c0.8,0,1.5-0.3,2.1-1c0.5-0.6,0.8-1.8,0.8-3.4
			v-8.8h7V68.4z"/>
		<path fill="#97968E" d="M120.3,43.3v25.1h-6.5v-2.7c-0.9,1.1-1.7,1.9-2.5,2.3c-1,0.5-2.1,0.8-3.4,0.8c-2.5,0-4.4-0.9-5.7-2.8
			c-1.3-1.9-2-4.2-2-6.9c0-3,0.7-5.3,2.2-6.9c1.4-1.6,3.3-2.4,5.5-2.4c1.1,0,2.1,0.2,3,0.5c0.9,0.4,1.7,0.9,2.4,1.6v-8.7H120.3z
			 M113.3,59.3c0-1.4-0.3-2.5-0.9-3.2c-0.6-0.7-1.4-1.1-2.3-1.1c-0.8,0-1.5,0.3-2,1c-0.5,0.7-0.8,1.8-0.8,3.4c0,1.5,0.3,2.6,0.8,3.3
			c0.6,0.7,1.3,1,2.1,1c0.9,0,1.6-0.4,2.2-1.1C113,62,113.3,60.9,113.3,59.3z"/>
		<path fill="#97968E" d="M124.6,50.2h6.5v2.9c1-1.2,2-2.1,2.9-2.6c1-0.5,2.2-0.8,3.6-0.8c1.9,0,3.4,0.6,4.5,1.7
			c1.1,1.1,1.6,2.9,1.6,5.3v11.6h-7v-10c0-1.1-0.2-2-0.6-2.4c-0.4-0.5-1-0.7-1.8-0.7c-0.8,0-1.5,0.3-2.1,1c-0.5,0.6-0.8,1.8-0.8,3.5
			v8.8h-7V50.2z"/>
		<path fill="#97968E" d="M148,61.4h7.5v7H148V61.4z"/>
		<path fill="#97968E" d="M173.3,61.3l6.6,0.7c-0.4,1.4-1,2.6-1.8,3.6c-0.8,1-1.9,1.8-3.2,2.4c-1.3,0.6-2.9,0.8-4.9,0.8
			c-1.9,0-3.5-0.2-4.8-0.5c-1.3-0.4-2.4-0.9-3.3-1.8c-0.9-0.8-1.7-1.8-2.2-2.8c-0.5-1.1-0.8-2.5-0.8-4.3c0-1.9,0.3-3.4,1-4.7
			c0.5-0.9,1.1-1.7,1.9-2.5c0.8-0.7,1.6-1.3,2.5-1.6c1.4-0.6,3.1-0.8,5.2-0.8c3,0,5.2,0.5,6.8,1.6c1.6,1.1,2.6,2.6,3.3,4.6l-6.6,0.9
			c-0.2-0.8-0.6-1.4-1.1-1.8c-0.5-0.4-1.3-0.6-2.2-0.6c-1.2,0-2.1,0.4-2.8,1.2c-0.7,0.8-1.1,2.1-1.1,3.8c0,1.5,0.4,2.6,1.1,3.4
			c0.7,0.8,1.6,1.2,2.7,1.2c0.9,0,1.7-0.2,2.3-0.7C172.5,63,173,62.3,173.3,61.3z"/>
		<path fill="#97968E" d="M182.2,59.4c0-2.8,0.9-5.1,2.8-6.9c1.9-1.8,4.4-2.7,7.6-2.7c3.7,0,6.4,1.1,8.3,3.2
			c1.5,1.7,2.3,3.8,2.3,6.3c0,2.8-0.9,5.1-2.8,6.9c-1.9,1.8-4.4,2.7-7.7,2.7c-2.9,0-5.3-0.7-7.1-2.2
			C183.4,64.8,182.2,62.4,182.2,59.4z M189.2,59.3c0,1.6,0.3,2.8,1,3.6c0.7,0.8,1.5,1.2,2.5,1.2c1,0,1.9-0.4,2.5-1.2
			c0.7-0.8,1-2,1-3.7c0-1.6-0.3-2.8-1-3.5c-0.7-0.8-1.5-1.2-2.4-1.2c-1,0-1.9,0.4-2.5,1.2C189.6,56.5,189.2,57.7,189.2,59.3z"/>
		<path fill="#97968E" d="M206.6,50.2h6.5v2.7c0.9-1.1,1.9-1.9,2.8-2.4c1-0.5,2.1-0.7,3.5-0.7c1.5,0,2.6,0.3,3.5,0.8
			c0.8,0.5,1.5,1.3,2.1,2.3c1.1-1.2,2.1-2,3-2.4c0.9-0.4,2-0.6,3.3-0.6c2,0,3.5,0.6,4.6,1.7c1.1,1.2,1.6,3,1.6,5.4v11.4h-7V58
			c0-0.8-0.2-1.4-0.5-1.8c-0.5-0.6-1-0.9-1.7-0.9c-0.8,0-1.5,0.3-2,0.9c-0.5,0.6-0.8,1.6-0.8,2.9v9.4h-7v-10c0-0.8,0-1.3-0.1-1.6
			c-0.1-0.5-0.4-0.8-0.8-1.1c-0.4-0.3-0.8-0.4-1.3-0.4c-0.8,0-1.5,0.3-2,0.9c-0.5,0.6-0.8,1.6-0.8,3v9.3h-7V50.2z"/>
	</g>
	<g>
		<path fill="#143781" d="M80,9.4h-1.4V6.9h10.6v2.5h-1.8v26.3H85v-5L84.2,31c-1.9,0.9-3.4,1.6-4.6,2.1l-1.2-2.2l1.6-0.7V9.4z
			 M85,13.9V9.4h-2.7v4.5H85z M85,20.9v-4.6h-2.7v4.6H85z M85,27.7v-4.3h-2.7v5.7h0.1L85,27.7z M88.2,21.3c-0.1-0.6-0.3-1.4-0.5-2.2
			l2.2-0.3c0.7-0.8,1.5-1.8,2.4-3.1c-1.4-1.5-2.7-2.7-4.1-3.6l1.2-1.9l0.9,0.6c0.9-1.6,1.8-3.4,2.6-5.4l2,1.1
			c-0.6,1.5-1.6,3.4-3,5.7l1.6,1.6c0.8-1.6,1.4-3,1.8-4.5l2.2,0.6c-0.6,2.3-2.2,5.2-4.8,8.5l2.6-0.4l-0.6-1.4l2.1-0.9
			c0.7,1.4,1.4,3.2,2,5.3l-2.2,0.7L96,20.4L88.2,21.3z M91.1,30.5c-0.7,0-1.1-0.4-1.1-1.1v-7.1h2.3v5.4c0,0.4,0.2,0.6,0.6,0.6H95
			v-6.1h2.3v7.6c0,0.5-0.1,1-0.4,1.6c-0.7,1.9-2.7,3.4-5.8,4.4L90,33.5c0.9-0.2,1.6-0.4,2.3-0.7c1.5-0.6,2.4-1.4,2.6-2.3H91.1z
			 M99.4,20.7c-0.1-0.6-0.3-1.4-0.6-2.2l1.2-0.2l2-2.6c-1.4-1.4-2.7-2.6-4.1-3.5l1.2-1.9l1,0.7c0.9-1.6,1.7-3.5,2.6-5.5l1.9,1.1
			c-0.6,1.5-1.6,3.4-3,5.8l1.5,1.4c1-1.7,1.7-3.5,2.1-5.1l2.2,0.6c-0.5,2.2-2,5-4.6,8.4l2.9-0.5l-0.5-1.5l2.2-0.6
			c0.5,1.4,1,3.2,1.3,5.3l-2.2,0.5l-0.3-1.5L99.4,20.7z M105.2,28.5c0.2,0,0.4-0.1,0.4-0.4v-5.9h2.2v7.9c0,0.4-0.2,0.6-0.6,0.6h-4.8
			v4.8h-2.5V21.9h2.5v6.6H105.2z"/>
		<path fill="#143781" d="M112.6,17.4l-1.7-2.8c7.4-2.8,12.3-5.9,14.5-9.1l2.9,0.5l-0.4,0.6c3.6,3.3,8,6,13.3,8l-1.9,2.7l-3.8-1.9
			v2.7h-18.7v-2.7L112.6,17.4z M137.1,34.9h-22.3c-0.5,0-0.8-0.3-0.8-0.8V21.9c0-0.5,0.3-0.8,0.8-0.8h22.3c0.5,0,0.8,0.3,0.8,0.8
			v12.2C137.9,34.7,137.7,34.9,137.1,34.9z M117.1,23.9c-0.1,0-0.2,0-0.1,0.1v8l0.1,0.2h17.8c0.1,0,0.2-0.1,0.2-0.2v-8l-0.2-0.1
			H117.1z M135.1,15.3c-3.1-1.8-6.1-4-9-6.5c-1.7,2-4.9,4.1-9.2,6.5H135.1z"/>
		<path fill="#143781" d="M152.6,35.7H150v-8.6c-1.6,2.4-3.1,4.3-4.7,5.8l-2.2-1.4c2.4-2.1,4.5-4.6,6.1-7.4h-5.6v-2.5h6.3v-2.4h-6.2
			v-2.5h9c0.8-2.1,1.4-3.8,1.7-5.2l2.4,0.8c-0.3,1.3-0.7,2.8-1.4,4.4h3.2v2.5h-6.1v2.4h6.1V24h-5.5c1.6,1.5,3.2,3.1,4.8,4.8
			l-1.9,1.8c-1-1.2-2.2-2.6-3.5-4V35.7z M150.4,5.6h2.8V8h5.4v2.6h-14.4V8h6.2V5.6z M148.1,11.3c0.6,1,1.2,2.4,1.8,4l-2.1,0.9
			c-0.6-1.7-1.2-3.1-1.7-4L148.1,11.3z M162.9,17.5v4.7c0,2.5-0.4,4.5-1,6.3c-0.8,2.2-2.2,4.5-4.1,6.7l-2.2-1.9
			c2-2.3,3.3-4.4,3.9-6.1c0.5-1.5,0.7-3.2,0.8-5V8c-0.1-0.6,0.2-0.9,0.6-1c3.3-0.1,6.8-0.5,10.2-1.2l1,2.7c-2.7,0.5-5.6,0.9-8.8,1.1
			c-0.3,0-0.5,0.2-0.4,0.5v4.6H173v2.7h-3.2v18.1h-2.7V17.5H162.9z"/>
		<path fill="#143781" d="M189.5,7.3v8.5c0,0.5-0.2,0.8-0.8,0.8h-9.3v18.8h-2.8V7.3c0-0.5,0.3-0.7,0.7-0.7h11.4
			C189.3,6.5,189.5,6.8,189.5,7.3z M186.8,10.4V9.4c0-0.4-0.2-0.6-0.6-0.6H180c-0.4,0-0.6,0.2-0.6,0.6v1.1H186.8z M179.4,12.7v1.6h7
			c0.3,0,0.4-0.1,0.4-0.4v-1.3H179.4z M183.2,20.5H181v-2.3h19.1v2.3h-2.6v14.9h-2.6v-3.3l-13.5,1.6l-0.5-2.4l2.2-0.3V20.5z
			 M194.9,22.3v-1.8h-9.1v1.8H194.9z M194.9,26.2v-1.6h-9.1v1.6H194.9z M194.9,29.7v-1.2h-9.1v2.2L194.9,29.7z M192.5,16.6
			c-0.5,0-0.8-0.3-0.8-0.8V7.3c0-0.5,0.3-0.8,0.7-0.8h11.3c0.5,0,0.8,0.3,0.8,0.8v25.9c0,0.5-0.1,1-0.4,1.5
			c-0.3,0.4-0.6,0.7-1.1,0.9c-1.1,0.4-2.6,0.3-4.5-0.3l0.3-2.7c1.3,0.5,2.3,0.7,2.7,0.7c0.2-0.1,0.3-0.2,0.4-0.4
			c0.1-0.2,0.2-0.4,0.2-0.7V16.6H192.5z M202.1,10.4V9c0-0.2-0.1-0.2-0.3-0.2h-7.4c-0.2,0-0.2,0.1-0.2,0.2v1.5H202.1z M194.2,12.7
			v1.4c0,0.2,0.1,0.3,0.2,0.3h7.6v-1.6H194.2z"/>
		<path fill="#143781" d="M208.3,22.5c-0.1-0.7-0.3-1.5-0.6-2.4l1.4-0.2c0.9-0.9,1.9-2.1,2.9-3.7c-1.4-1.6-2.9-2.8-4.5-3.7l1.3-2.2
			c0.2,0,0.5,0.3,1.2,0.8c0.7-1.6,1.4-3.4,2-5.3l2.3,1c-0.5,1.5-1.3,3.4-2.5,5.8l1.5,1.3c1-1.8,1.7-3.6,2.2-5.4l2.4,0.7
			c-0.6,2.7-2.6,6-5.8,10l3.4-0.5l-0.7-2.4l2.3-0.5c0.7,2.3,1.2,4.4,1.5,6.4l-2.3,0.4l-0.2-1.4l-1.7,0.2v13.9h-2.6V22L208.3,22.5z
			 M210.8,24.3c-0.2,4.4-0.4,7.5-0.7,9.3l-2.3-0.4c0.4-2.9,0.6-6,0.6-9.2L210.8,24.3z M218.5,30.6l-2.2,0.3l-0.7-6.3l2.1-0.5
			L218.5,30.6z M221.8,22.5v12.9h-2.6V7.6c0-0.6,0.3-0.9,0.9-0.9h16.2c0.6,0,0.9,0.3,0.9,0.9v24.7c0,1.1-0.4,2-1.2,2.6
			c-1,0.8-3.2,0.8-6.5,0.2l-0.2-2.9c1.6,0.5,2.8,0.8,3.5,0.8c0.4,0,0.7-0.1,1-0.3c0.5-0.3,0.7-0.7,0.7-1.2v-8.9h-7.8V27
			c0,0.5,0.2,0.6,0.6,0.6h5.6v2.5h-7.5c-0.8,0-1.2-0.4-1.2-1.2v-6.4H221.8z M234.6,15.1V9.3c0-0.1-0.1-0.2-0.2-0.2H222
			c-0.1,0-0.2,0.1-0.2,0.2v5.7h6.8c1-2,1.8-3.8,2.2-5.3l2.2,1l-1.7,4.3H234.6z M227,20.1v-2.7h-5.2v2.7H227z M225.7,10.3
			c0.5,0.9,0.9,2.1,1.4,3.6l-2.3,0.7c-0.4-1.5-0.9-2.6-1.3-3.4L225.7,10.3z M234.6,20.1v-2.7h-5.1v2.7H234.6z"/>
	</g>
	<g>
		<path fill="#EE7B1B" d="M69.1,68.8c1.5,0,2.7-1.2,2.7-2.6V8.3c0-1.5-1.2-2.6-2.7-2.6H11.2c-1.5,0-2.7,1.2-2.7,2.6v57.9
			c0,1.4,1.2,2.6,2.7,2.6H69.1z"/>
		<path fill="#EABE86" d="M11.2,5C9.4,5,7.9,6.5,7.9,8.3v57.9c0,1.8,1.5,3.3,3.3,3.3h57.9c1.8,0,3.3-1.5,3.3-3.3V8.3
			c0-1.8-1.5-3.3-3.3-3.3H11.2z M9.2,66.2V8.3c0-1.1,0.9-2,2-2h57.9c1.1,0,2,0.9,2,2v57.9c0,1.1-0.9,2-2,2H11.2
			C10.1,68.2,9.2,67.3,9.2,66.2z"/>
		<rect x="27.8" y="21.2" fill="#030000" width="26" height="23.7"/>
		<line fill="#B5B5BD" x1="36.7" y1="39.9" x2="44.6" y2="39.9"/>
		<rect x="36.7" y="39.7" fill="#656464" width="7.9" height="0.4"/>
		<path fill="#E1DFDF" d="M51.6,15.2h-23c-4.3,0-7.7,3.4-7.7,7.5v17.4c0,4.1,3.5,7.5,7.7,7.5h23c4.3,0,7.7-3.4,7.7-7.5V22.7
			C59.4,18.5,55.9,15.2,51.6,15.2z M33.8,32.4c0,0.9-0.8,1.6-1.7,1.6h-0.4c-0.8,0-1.4-0.5-1.6-1.2c0-0.1-0.1-0.3-0.1-0.4v-9
			c0,0,0-0.1,0-0.1v-1.6h3.7v1.7h0V32.4z M40.4,43.7c-2.2,0-3.9-1.7-3.9-3.8h7.9C44.3,42,42.6,43.7,40.4,43.7z M51.3,32.4
			c0,0.9-0.8,1.6-1.7,1.6h-0.4h-1.7V21.8h1.7h0.4c0.9,0,1.7,0.7,1.7,1.6V32.4z"/>
		<path fill="#7E7E7F" d="M28.6,14.9c-4.4,0-8,3.5-8,7.8v17.4c0,4.3,3.6,7.7,8,7.7h23c4.4,0,8-3.5,8-7.7V22.7c0-4.3-3.6-7.8-8-7.8
			H28.6z M21.2,40.1V22.7c0-4,3.4-7.3,7.5-7.3h23c4.1,0,7.5,3.3,7.5,7.3v17.4c0,4-3.4,7.3-7.5,7.3h-23
			C24.5,47.4,21.2,44.1,21.2,40.1z"/>
		<path fill="#7E7E7F" d="M33.8,21.5h-3.9v1.8c0,0,0,0.1,0,0.1v9l0.1,0.5c0.2,0.8,1,1.4,1.8,1.4h0.4c1.1,0,1.9-0.8,1.9-1.9v-9l0-1.7
			v-0.2H33.8z M33.6,22c0,0.4,0,1.4,0,1.4l0,9c0,0.8-0.6,1.4-1.4,1.4h-0.4c-0.6,0-1.2-0.4-1.4-1c0,0-0.1-0.4-0.1-0.4v-9
			c0,0,0-0.1,0-0.1s0-1,0-1.3C30.8,22,33.2,22,33.6,22z"/>
		<path fill="#7E7E7F" d="M44.3,39.7h-8.1v0.2c0,2.2,1.9,4.1,4.2,4.1c2.3,0,4.2-1.8,4.2-4.1v-0.2H44.3z M44,40.2
			c-0.1,1.9-1.7,3.3-3.6,3.3c-1.9,0-3.5-1.5-3.6-3.3C37.3,40.2,43.5,40.2,44,40.2z"/>
		<path fill="#7E7E7F" d="M49.2,21.5h-2v12.8h2.3c1.1,0,1.9-0.8,1.9-1.9v-9c0-1-0.9-1.9-1.9-1.9H49.2z M49.2,22h0.4
			c0.8,0,1.4,0.6,1.4,1.4v9c0,0.8-0.6,1.4-1.4,1.4c0,0-1.5,0-1.9,0c0-0.5,0-11.3,0-11.8C48.1,22,49.2,22,49.2,22z"/>
		<path fill="#FFFFFF" d="M33.7,22.1v1.3l0,9c0,0.8-0.7,1.5-1.6,1.5h-0.4v0.2h0.4c1,0,1.8-0.8,1.8-1.7v-9l0-1.3H33.7z"/>
		<path fill="#FFFFFF" d="M44.2,39.9c0,2.1-1.7,3.7-3.8,3.7v0.2c2.2,0,4-1.8,4-3.9H44.2z"/>
		<path fill="#FFFFFF" d="M51.2,23.4v9c0,0.8-0.7,1.5-1.6,1.5h-1.9v0.2h1.9c1,0,1.8-0.8,1.8-1.7v-9H51.2z"/>
		<path fill="#FFFFFF" d="M21.6,23.2C21.6,23.2,21.7,23.3,21.6,23.2c0.2,0.1,0.2,0.1,0.2,0c0-3.9,3.2-7,7.2-7c0.1,0,0.1,0,0.1-0.1
			c0-0.1,0-0.1-0.1-0.1C25,15.9,21.6,19.2,21.6,23.2z"/>
		<path fill="#A67122" d="M68.9,6.3c1.1,0,2,0.9,2,2v57.9c0,1.1-0.9,2-2,2H11.4c-1.1,0-2-0.9-2-2H8.1c0,1.8,1.5,3.3,3.3,3.3h57.6
			c1.8,0,3.3-1.5,3.3-3.3V8.3c0-1.8-1.5-3.3-3.3-3.3V6.3z"/>
		<path fill="#FFFFFF" d="M7.9,8.3h1.2c0-1.1,0.9-2,2-2V5C9.4,5,7.9,6.5,7.9,8.3z"/>
		<path fill="#FFFFFF" d="M18.5,59.4c0,0.7,0,1.3,0,1.8H17l-0.1-0.8h0c-0.2,0.3-0.8,0.9-1.8,0.9c-1.2,0-2-0.7-2-2.5v-3.3h1.8v3
			c0,0.8,0.3,1.3,0.9,1.3c0.5,0,0.8-0.3,0.9-0.6c0-0.1,0.1-0.2,0.1-0.4v-3.4h1.8V59.4z"/>
		<path fill="#FFFFFF" d="M25.4,58.7c0,0.1,0,0.3,0,0.4c-0.1,0.5-0.5,0.8-1,0.8c-0.7,0-1.2-0.6-1.2-1.5c0-0.9,0.4-1.6,1.2-1.6
			c0.5,0,0.9,0.4,1,0.9c0,0.1,0,0.2,0,0.3V58.7z M25.4,53v3.1h0c-0.3-0.4-0.8-0.6-1.5-0.6c-1.4,0-2.6,1.1-2.5,3
			c0,1.8,1.1,2.9,2.4,2.9c0.7,0,1.4-0.3,1.8-1h0l0.1,0.8h1.6c0-0.4,0-1,0-1.7V53H25.4z"/>
		<path fill="#FFFFFF" d="M30.3,57.4c0-0.7,0-1.3,0-1.8h1.5l0.1,0.8h0c0.2-0.4,0.8-0.9,1.8-0.9c1.2,0,2,0.8,2,2.4v3.3H34v-3.1
			c0-0.7-0.3-1.2-0.9-1.2c-0.5,0-0.8,0.3-0.9,0.7c0,0.1-0.1,0.3-0.1,0.4v3.3h-1.8V57.4z"/>
		<g>
			<path fill="#F3DD24" d="M38.8,61.4v-1.1H40v1.1H38.8z"/>
			<path fill="#F3DD24" d="M47,59.2l1,0.1c-0.1,0.7-0.4,1.2-0.8,1.6c-0.4,0.4-1,0.6-1.6,0.6c-0.8,0-1.4-0.3-1.9-0.8
				c-0.5-0.5-0.7-1.3-0.7-2.3c0-0.6,0.1-1.2,0.3-1.7c0.2-0.5,0.5-0.8,1-1.1c0.4-0.2,0.9-0.4,1.4-0.4c0.6,0,1.2,0.2,1.6,0.5
				c0.4,0.3,0.7,0.8,0.8,1.4l-1,0.1c-0.1-0.4-0.3-0.7-0.5-0.9c-0.2-0.2-0.5-0.3-0.8-0.3c-0.5,0-0.9,0.2-1.2,0.5
				c-0.3,0.4-0.5,0.9-0.5,1.7c0,0.8,0.2,1.4,0.5,1.7c0.3,0.4,0.7,0.5,1.2,0.5c0.4,0,0.7-0.1,1-0.4C46.7,60.1,46.9,59.7,47,59.2z"/>
			<path fill="#F3DD24" d="M52.2,56.7c0.3-0.4,0.7-0.6,1.2-0.6c0.5,0,0.9,0.2,1.2,0.6c0.3,0.4,0.5,0.9,0.5,1.7
				c0,0.8-0.2,1.4-0.5,1.7c-0.3,0.4-0.7,0.6-1.2,0.6c-0.5,0-0.9-0.2-1.2-0.6c-0.3-0.4-0.5-0.9-0.5-1.7
				C51.7,57.7,51.9,57.1,52.2,56.7z M51.5,60.7c0.5,0.5,1.2,0.8,2,0.8c0.5,0,1-0.1,1.4-0.4c0.4-0.2,0.8-0.6,1-1
				c0.2-0.4,0.3-1,0.3-1.8c0-0.9-0.3-1.7-0.8-2.2c-0.5-0.5-1.2-0.8-2-0.8c-0.7,0-1.3,0.2-1.8,0.7c-0.6,0.5-0.9,1.3-0.9,2.4
				C50.7,59.4,51,60.2,51.5,60.7z"/>
			<path fill="#F3DD24" d="M59.1,61.4v-5.9H60v0.8c0.2-0.3,0.4-0.5,0.7-0.7c0.3-0.2,0.7-0.3,1-0.3c0.4,0,0.8,0.1,1.1,0.3
				c0.3,0.2,0.5,0.4,0.6,0.8c0.5-0.7,1.1-1,1.8-1c0.6,0,1,0.2,1.4,0.5c0.3,0.3,0.5,0.8,0.5,1.5v4.1h-1v-3.7c0-0.4,0-0.7-0.1-0.9
				c-0.1-0.2-0.2-0.3-0.4-0.4c-0.2-0.1-0.4-0.2-0.6-0.2c-0.4,0-0.8,0.1-1,0.4c-0.3,0.3-0.4,0.7-0.4,1.3v3.4h-1v-3.8
				c0-0.4-0.1-0.8-0.2-1c-0.2-0.2-0.4-0.3-0.8-0.3c-0.3,0-0.5,0.1-0.8,0.2c-0.2,0.1-0.4,0.4-0.5,0.6c-0.1,0.3-0.2,0.7-0.2,1.2v3.1
				H59.1z"/>
		</g>
	</g>
</g>
</svg>
